<svg xmlns="http://www.w3.org/2000/svg" xmlns:xlink="http://www.w3.org/1999/xlink" version="1.1" width="2276" height="2396" name="PhyloAnalysis.svg" y="0" viewBox="0 0 2276 2396">
<polyline points="2276,2396 0,2396 0,0 2276,0 2276,2396" fill="white" />
<text x="1650" y="100" fill="#000000" font-size="27" font-family="Arial" > Cellulomonas gilvus 16s:2110398-2111913</text>
<polyline points="1583,146 1583,89 1642,89" fill="none" stroke="#000000" stroke-width="1" stroke-linecap="square"/>
<text x="1723" y="214" fill="#000000" font-size="27" font-family="Arial" > Cellulomonas fulva 16s:221-1651</text>
<polyline points="1583,147 1583,203 1715,203" fill="none" stroke="#000000" stroke-width="1" stroke-linecap="square"/>
<polyline points="1495,260 1495,146 1583,146" fill="none" stroke="#000000" stroke-width="1" stroke-linecap="square"/>
<text x="1606" y="328" fill="#000000" font-size="27" font-family="Arial" > Cellulomonas palmilytica 16s:1722785-1724301</text>
<polyline points="1554,374 1554,317 1598,317" fill="none" stroke="#000000" stroke-width="1" stroke-linecap="square"/>
<text x="1562" y="442" fill="#000000" font-size="27" font-family="Arial" > Cellulomonas uda 16s:3767-5283</text>
<polyline points="1554,375 1554,431 1554,431" fill="none" stroke="#000000" stroke-width="1" stroke-linecap="square"/>
<polyline points="1495,261 1495,374 1554,374" fill="none" stroke="#000000" stroke-width="1" stroke-linecap="square"/>
<polyline points="1363,402 1363,260 1495,260" fill="none" stroke="#000000" stroke-width="1" stroke-linecap="square"/>
<text x="1415" y="556" fill="#000000" font-size="27" font-family="Arial" > Cellulomonas composti 16s:3851-5368</text>
<polyline points="1363,403 1363,545 1407,545" fill="none" stroke="#000000" stroke-width="1" stroke-linecap="square"/>
<polyline points="1245,601 1245,402 1363,402" fill="none" stroke="#000000" stroke-width="1" stroke-linecap="square"/>
<text x="1444" y="670" fill="#000000" font-size="27" font-family="Arial" > Cellulomonas wangsupingiae 16s:1190616-1192133</text>
<polyline points="1421,801 1421,659 1436,659" fill="none" stroke="#000000" stroke-width="1" stroke-linecap="square"/>
<text x="1561" y="784" fill="#000000" font-size="27" font-family="Arial" > Cellulomonas flavigena 16s:1209813-1211330</text>
<polyline points="1494,830 1494,773 1553,773" fill="none" stroke="#000000" stroke-width="1" stroke-linecap="square"/>
<text x="1502" y="898" fill="#000000" font-size="27" font-family="Arial" > Cellulomonas wangleii 16s:1227608-1229125</text>
<polyline points="1494,831 1494,887 1494,887" fill="none" stroke="#000000" stroke-width="1" stroke-linecap="square"/>
<polyline points="1465,944 1465,830 1494,830" fill="none" stroke="#000000" stroke-width="1" stroke-linecap="square"/>
<text x="1590" y="1012" fill="#000000" font-size="27" font-family="Arial" > Cellulomonas iranesis 16s:690805-692322</text>
<polyline points="1494,1058 1494,1001 1582,1001" fill="none" stroke="#000000" stroke-width="1" stroke-linecap="square"/>
<text x="1502" y="1126" fill="#000000" font-size="27" font-family="Arial" > Cellulomonas xiejunii 16s:1204400-1205917</text>
<polyline points="1494,1059 1494,1115 1494,1115" fill="none" stroke="#000000" stroke-width="1" stroke-linecap="square"/>
<polyline points="1465,945 1465,1058 1494,1058" fill="none" stroke="#000000" stroke-width="1" stroke-linecap="square"/>
<polyline points="1421,802 1421,944 1465,944" fill="none" stroke="#000000" stroke-width="1" stroke-linecap="square"/>
<polyline points="1245,602 1245,801 1421,801" fill="none" stroke="#000000" stroke-width="1" stroke-linecap="square"/>
<polyline points="1201,915 1201,601 1245,601" fill="none" stroke="#000000" stroke-width="1" stroke-linecap="square"/>
<text x="1327" y="1240" fill="#000000" font-size="27" font-family="Arial" > Cellulomonas soli 16s:2903978-2905500</text>
<polyline points="1201,916 1201,1229 1319,1229" fill="none" stroke="#000000" stroke-width="1" stroke-linecap="square"/>
<polyline points="1172,1178 1172,915 1201,915" fill="none" stroke="#000000" stroke-width="1" stroke-linecap="square"/>
<text x="1342" y="1354" fill="#000000" font-size="27" font-family="Arial" > Cellulomonas terrae 16s:3786-5305</text>
<polyline points="1290,1442 1290,1343 1334,1343" fill="none" stroke="#000000" stroke-width="1" stroke-linecap="square"/>
<text x="1563" y="1468" fill="#000000" font-size="27" font-family="Arial" > Cellulomonas xylanilytica 16s:256-1776</text>
<polyline points="1334,1542 1334,1457 1555,1457" fill="none" stroke="#000000" stroke-width="1" stroke-linecap="square"/>
<text x="1768" y="1582" fill="#000000" font-size="27" font-family="Arial" > Cellulomonas hominis 16s:291-1810</text>
<polyline points="1657,1628 1657,1571 1760,1571" fill="none" stroke="#000000" stroke-width="1" stroke-linecap="square"/>
<text x="1709" y="1696" fill="#000000" font-size="27" font-family="Arial" > Cellulomonas pakistanensis 16s:3927-5446</text>
<polyline points="1657,1629 1657,1685 1701,1685" fill="none" stroke="#000000" stroke-width="1" stroke-linecap="square"/>
<polyline points="1334,1543 1334,1628 1657,1628" fill="none" stroke="#000000" stroke-width="1" stroke-linecap="square"/>
<polyline points="1290,1443 1290,1542 1334,1542" fill="none" stroke="#000000" stroke-width="1" stroke-linecap="square"/>
<polyline points="1172,1179 1172,1442 1290,1442" fill="none" stroke="#000000" stroke-width="1" stroke-linecap="square"/>
<polyline points="1128,1517 1128,1178 1172,1178" fill="none" stroke="#000000" stroke-width="1" stroke-linecap="square"/>
<text x="1460" y="1810" fill="#000000" font-size="27" font-family="Arial" > Cellulomonas algicola 16s:3772-5290</text>
<polyline points="1231,1856 1231,1799 1452,1799" fill="none" stroke="#000000" stroke-width="1" stroke-linecap="square"/>
<text x="1313" y="1924" fill="#000000" font-size="27" font-family="Arial" > Cellulomonas fimi 16s:1832181-1833701</text>
<polyline points="1231,1857 1231,1913 1305,1913" fill="none" stroke="#000000" stroke-width="1" stroke-linecap="square"/>
<polyline points="1128,1518 1128,1856 1231,1856" fill="none" stroke="#000000" stroke-width="1" stroke-linecap="square"/>
<polyline points="966,1772 966,1517 1128,1517" fill="none" stroke="#000000" stroke-width="1" stroke-linecap="square"/>
<text x="1106" y="2038" fill="#000000" font-size="27" font-family="Arial" > Cellulomonas cellasea 16s:297-1818</text>
<polyline points="966,1773 966,2027 1098,2027" fill="none" stroke="#000000" stroke-width="1" stroke-linecap="square"/>
<polyline points="40,1956 40,1772 966,1772" fill="none" stroke="#000000" stroke-width="1" stroke-linecap="square"/>
<text x="48" y="2152" fill="#000000" font-size="27" font-family="Arial" > Sanguibacter suarezii 16s:276-1798</text>
<polyline points="40,1957 40,2141 40,2141" fill="none" stroke="#000000" stroke-width="1" stroke-linecap="square"/>
<text x="1529" y="373" fill="#000000" font-size="21" font-family="Arial" >99</text>
<text x="1469" y="829" fill="#000000" font-size="21" font-family="Arial" >93</text>
<text x="1469" y="1057" fill="#000000" font-size="21" font-family="Arial" >89</text>
<text x="1440" y="943" fill="#000000" font-size="21" font-family="Arial" >88</text>
<text x="1384" y="800" fill="#000000" font-size="21" font-family="Arial" >100</text>
<text x="1558" y="145" fill="#000000" font-size="21" font-family="Arial" >95</text>
<text x="1470" y="259" fill="#000000" font-size="21" font-family="Arial" >99</text>
<text x="1206" y="1855" fill="#000000" font-size="21" font-family="Arial" >96</text>
<text x="1103" y="1516" fill="#000000" font-size="21" font-family="Arial" >93</text>
<text x="1338" y="401" fill="#000000" font-size="21" font-family="Arial" >96</text>
<text x="1220" y="600" fill="#000000" font-size="21" font-family="Arial" >91</text>
<text x="1176" y="914" fill="#000000" font-size="21" font-family="Arial" >71</text>
<text x="1620" y="1627" fill="#000000" font-size="21" font-family="Arial" >100</text>
<text x="1309" y="1541" fill="#000000" font-size="21" font-family="Arial" >60</text>
<text x="1265" y="1441" fill="#000000" font-size="21" font-family="Arial" >72</text>
<text x="1147" y="1177" fill="#000000" font-size="21" font-family="Arial" >84</text>
<text x="1320" y="1828" fill="#000000" font-size="21" font-family="Arial" >0.010</text>
<text x="1010" y="2056" fill="#000000" font-size="21" font-family="Arial" >0.006</text>
<text x="1363" y="574" fill="#000000" font-size="21" font-family="Arial" >0.002</text>
<text x="1246" y="1942" fill="#000000" font-size="21" font-family="Arial" >0.003</text>
<text x="1591" y="118" fill="#000000" font-size="21" font-family="Arial" >0.003</text>
<text x="1502" y="802" fill="#000000" font-size="21" font-family="Arial" >0.003</text>
<text x="1627" y="232" fill="#000000" font-size="21" font-family="Arial" >0.006</text>
<text x="1687" y="1600" fill="#000000" font-size="21" font-family="Arial" >0.005</text>
<text x="1516" y="1030" fill="#000000" font-size="21" font-family="Arial" >0.004</text>
<text x="1657" y="1714" fill="#000000" font-size="21" font-family="Arial" >0.002</text>
<text x="1238" y="1258" fill="#000000" font-size="21" font-family="Arial" >0.005</text>
<text x="1290" y="1372" fill="#000000" font-size="21" font-family="Arial" >0.002</text>
<text x="1554" y="346" fill="#000000" font-size="21" font-family="Arial" >0.002</text>
<text x="1406" y="688" fill="#000000" font-size="21" font-family="Arial" >0.001</text>
<text x="1532" y="460" fill="#6D6D6D" font-size="21" font-family="Arial" >0.000</text>
<text x="1472" y="916" fill="#6D6D6D" font-size="21" font-family="Arial" >0.000</text>
<text x="1472" y="1144" fill="#6D6D6D" font-size="21" font-family="Arial" >0.000</text>
<text x="1423" y="1486" fill="#000000" font-size="21" font-family="Arial" >0.010</text>
<text x="18" y="2170" fill="#6D6D6D" font-size="21" font-family="Arial" >0.000</text>
<text x="1501" y="403" fill="#000000" font-size="21" font-family="Arial" >0.003</text>
<text x="1441" y="859" fill="#000000" font-size="21" font-family="Arial" >0.001</text>
<text x="1441" y="1087" fill="#000000" font-size="21" font-family="Arial" >0.001</text>
<text x="1412" y="973" fill="#000000" font-size="21" font-family="Arial" >0.002</text>
<text x="1311" y="830" fill="#000000" font-size="21" font-family="Arial" >0.008</text>
<text x="1517" y="175" fill="#000000" font-size="21" font-family="Arial" >0.004</text>
<text x="1407" y="289" fill="#000000" font-size="21" font-family="Arial" >0.006</text>
<text x="1158" y="1885" fill="#000000" font-size="21" font-family="Arial" >0.005</text>
<text x="481" y="1801" fill="#000000" font-size="21" font-family="Arial" >0.042</text>
<text x="1025" y="1546" fill="#000000" font-size="21" font-family="Arial" >0.007</text>
<text x="1282" y="431" fill="#000000" font-size="21" font-family="Arial" >0.005</text>
<text x="1192" y="630" fill="#000000" font-size="21" font-family="Arial" >0.002</text>
<text x="1148" y="944" fill="#000000" font-size="21" font-family="Arial" >0.001</text>
<text x="1474" y="1657" fill="#000000" font-size="21" font-family="Arial" >0.015</text>
<text x="1281" y="1571" fill="#000000" font-size="21" font-family="Arial" >0.002</text>
<text x="1209" y="1471" fill="#000000" font-size="21" font-family="Arial" >0.005</text>
<text x="1119" y="1207" fill="#000000" font-size="21" font-family="Arial" >0.002</text>
<line x1="60" y1="2187" x2="283" y2="2187" stroke="#000000" stroke-width="1" stroke-linecap="square"/>
<line x1="60" y1="2183" x2="60" y2="2191" stroke="#000000" stroke-width="1" stroke-linecap="square"/>
<line x1="283" y1="2183" x2="283" y2="2191" stroke="#000000" stroke-width="1" stroke-linecap="square"/>
<text x="155" y="2227" fill="#000000" font-size="21" font-family="Arial" >0.01</text>
<text x="1650" y="100" fill="#000000" font-size="27" font-family="Arial" > Cellulomonas gilvus 16s:2110398-2111913</text>
<polyline points="1583,146 1583,89 1642,89" fill="none" stroke="#000000" stroke-width="1" stroke-linecap="square"/>
<text x="1723" y="214" fill="#000000" font-size="27" font-family="Arial" > Cellulomonas fulva 16s:221-1651</text>
<polyline points="1583,147 1583,203 1715,203" fill="none" stroke="#000000" stroke-width="1" stroke-linecap="square"/>
<polyline points="1495,260 1495,146 1583,146" fill="none" stroke="#000000" stroke-width="1" stroke-linecap="square"/>
<text x="1606" y="328" fill="#000000" font-size="27" font-family="Arial" > Cellulomonas palmilytica 16s:1722785-1724301</text>
<polyline points="1554,374 1554,317 1598,317" fill="none" stroke="#000000" stroke-width="1" stroke-linecap="square"/>
<text x="1562" y="442" fill="#000000" font-size="27" font-family="Arial" > Cellulomonas uda 16s:3767-5283</text>
<polyline points="1554,375 1554,431 1554,431" fill="none" stroke="#000000" stroke-width="1" stroke-linecap="square"/>
<polyline points="1495,261 1495,374 1554,374" fill="none" stroke="#000000" stroke-width="1" stroke-linecap="square"/>
<polyline points="1363,402 1363,260 1495,260" fill="none" stroke="#000000" stroke-width="1" stroke-linecap="square"/>
<text x="1415" y="556" fill="#000000" font-size="27" font-family="Arial" > Cellulomonas composti 16s:3851-5368</text>
<polyline points="1363,403 1363,545 1407,545" fill="none" stroke="#000000" stroke-width="1" stroke-linecap="square"/>
<polyline points="1245,601 1245,402 1363,402" fill="none" stroke="#000000" stroke-width="1" stroke-linecap="square"/>
<text x="1444" y="670" fill="#000000" font-size="27" font-family="Arial" > Cellulomonas wangsupingiae 16s:1190616-1192133</text>
<polyline points="1421,801 1421,659 1436,659" fill="none" stroke="#000000" stroke-width="1" stroke-linecap="square"/>
<text x="1561" y="784" fill="#000000" font-size="27" font-family="Arial" > Cellulomonas flavigena 16s:1209813-1211330</text>
<polyline points="1494,830 1494,773 1553,773" fill="none" stroke="#000000" stroke-width="1" stroke-linecap="square"/>
<text x="1502" y="898" fill="#000000" font-size="27" font-family="Arial" > Cellulomonas wangleii 16s:1227608-1229125</text>
<polyline points="1494,831 1494,887 1494,887" fill="none" stroke="#000000" stroke-width="1" stroke-linecap="square"/>
<polyline points="1465,944 1465,830 1494,830" fill="none" stroke="#000000" stroke-width="1" stroke-linecap="square"/>
<text x="1590" y="1012" fill="#000000" font-size="27" font-family="Arial" > Cellulomonas iranesis 16s:690805-692322</text>
<polyline points="1494,1058 1494,1001 1582,1001" fill="none" stroke="#000000" stroke-width="1" stroke-linecap="square"/>
<text x="1502" y="1126" fill="#000000" font-size="27" font-family="Arial" > Cellulomonas xiejunii 16s:1204400-1205917</text>
<polyline points="1494,1059 1494,1115 1494,1115" fill="none" stroke="#000000" stroke-width="1" stroke-linecap="square"/>
<polyline points="1465,945 1465,1058 1494,1058" fill="none" stroke="#000000" stroke-width="1" stroke-linecap="square"/>
<polyline points="1421,802 1421,944 1465,944" fill="none" stroke="#000000" stroke-width="1" stroke-linecap="square"/>
<polyline points="1245,602 1245,801 1421,801" fill="none" stroke="#000000" stroke-width="1" stroke-linecap="square"/>
<polyline points="1201,915 1201,601 1245,601" fill="none" stroke="#000000" stroke-width="1" stroke-linecap="square"/>
<text x="1327" y="1240" fill="#000000" font-size="27" font-family="Arial" > Cellulomonas soli 16s:2903978-2905500</text>
<polyline points="1201,916 1201,1229 1319,1229" fill="none" stroke="#000000" stroke-width="1" stroke-linecap="square"/>
<polyline points="1172,1178 1172,915 1201,915" fill="none" stroke="#000000" stroke-width="1" stroke-linecap="square"/>
<text x="1342" y="1354" fill="#000000" font-size="27" font-family="Arial" > Cellulomonas terrae 16s:3786-5305</text>
<polyline points="1290,1442 1290,1343 1334,1343" fill="none" stroke="#000000" stroke-width="1" stroke-linecap="square"/>
<text x="1563" y="1468" fill="#000000" font-size="27" font-family="Arial" > Cellulomonas xylanilytica 16s:256-1776</text>
<polyline points="1334,1542 1334,1457 1555,1457" fill="none" stroke="#000000" stroke-width="1" stroke-linecap="square"/>
<text x="1768" y="1582" fill="#000000" font-size="27" font-family="Arial" > Cellulomonas hominis 16s:291-1810</text>
<polyline points="1657,1628 1657,1571 1760,1571" fill="none" stroke="#000000" stroke-width="1" stroke-linecap="square"/>
<text x="1709" y="1696" fill="#000000" font-size="27" font-family="Arial" > Cellulomonas pakistanensis 16s:3927-5446</text>
<polyline points="1657,1629 1657,1685 1701,1685" fill="none" stroke="#000000" stroke-width="1" stroke-linecap="square"/>
<polyline points="1334,1543 1334,1628 1657,1628" fill="none" stroke="#000000" stroke-width="1" stroke-linecap="square"/>
<polyline points="1290,1443 1290,1542 1334,1542" fill="none" stroke="#000000" stroke-width="1" stroke-linecap="square"/>
<polyline points="1172,1179 1172,1442 1290,1442" fill="none" stroke="#000000" stroke-width="1" stroke-linecap="square"/>
<polyline points="1128,1517 1128,1178 1172,1178" fill="none" stroke="#000000" stroke-width="1" stroke-linecap="square"/>
<text x="1460" y="1810" fill="#000000" font-size="27" font-family="Arial" > Cellulomonas algicola 16s:3772-5290</text>
<polyline points="1231,1856 1231,1799 1452,1799" fill="none" stroke="#000000" stroke-width="1" stroke-linecap="square"/>
<text x="1313" y="1924" fill="#000000" font-size="27" font-family="Arial" > Cellulomonas fimi 16s:1832181-1833701</text>
<polyline points="1231,1857 1231,1913 1305,1913" fill="none" stroke="#000000" stroke-width="1" stroke-linecap="square"/>
<polyline points="1128,1518 1128,1856 1231,1856" fill="none" stroke="#000000" stroke-width="1" stroke-linecap="square"/>
<polyline points="966,1772 966,1517 1128,1517" fill="none" stroke="#000000" stroke-width="1" stroke-linecap="square"/>
<text x="1106" y="2038" fill="#000000" font-size="27" font-family="Arial" > Cellulomonas cellasea 16s:297-1818</text>
<polyline points="966,1773 966,2027 1098,2027" fill="none" stroke="#000000" stroke-width="1" stroke-linecap="square"/>
<polyline points="40,1956 40,1772 966,1772" fill="none" stroke="#000000" stroke-width="1" stroke-linecap="square"/>
<text x="48" y="2152" fill="#000000" font-size="27" font-family="Arial" > Sanguibacter suarezii 16s:276-1798</text>
<polyline points="40,1957 40,2141 40,2141" fill="none" stroke="#000000" stroke-width="1" stroke-linecap="square"/>
<text x="1529" y="373" fill="#000000" font-size="21" font-family="Arial" >99</text>
<text x="1469" y="829" fill="#000000" font-size="21" font-family="Arial" >93</text>
<text x="1469" y="1057" fill="#000000" font-size="21" font-family="Arial" >89</text>
<text x="1440" y="943" fill="#000000" font-size="21" font-family="Arial" >88</text>
<text x="1384" y="800" fill="#000000" font-size="21" font-family="Arial" >100</text>
<text x="1558" y="145" fill="#000000" font-size="21" font-family="Arial" >95</text>
<text x="1470" y="259" fill="#000000" font-size="21" font-family="Arial" >99</text>
<text x="1206" y="1855" fill="#000000" font-size="21" font-family="Arial" >96</text>
<text x="1103" y="1516" fill="#000000" font-size="21" font-family="Arial" >93</text>
<text x="1338" y="401" fill="#000000" font-size="21" font-family="Arial" >96</text>
<text x="1220" y="600" fill="#000000" font-size="21" font-family="Arial" >91</text>
<text x="1176" y="914" fill="#000000" font-size="21" font-family="Arial" >71</text>
<text x="1620" y="1627" fill="#000000" font-size="21" font-family="Arial" >100</text>
<text x="1309" y="1541" fill="#000000" font-size="21" font-family="Arial" >60</text>
<text x="1265" y="1441" fill="#000000" font-size="21" font-family="Arial" >72</text>
<text x="1147" y="1177" fill="#000000" font-size="21" font-family="Arial" >84</text>
<text x="1320" y="1828" fill="#000000" font-size="21" font-family="Arial" >0.010</text>
<text x="1010" y="2056" fill="#000000" font-size="21" font-family="Arial" >0.006</text>
<text x="1363" y="574" fill="#000000" font-size="21" font-family="Arial" >0.002</text>
<text x="1246" y="1942" fill="#000000" font-size="21" font-family="Arial" >0.003</text>
<text x="1591" y="118" fill="#000000" font-size="21" font-family="Arial" >0.003</text>
<text x="1502" y="802" fill="#000000" font-size="21" font-family="Arial" >0.003</text>
<text x="1627" y="232" fill="#000000" font-size="21" font-family="Arial" >0.006</text>
<text x="1687" y="1600" fill="#000000" font-size="21" font-family="Arial" >0.005</text>
<text x="1516" y="1030" fill="#000000" font-size="21" font-family="Arial" >0.004</text>
<text x="1657" y="1714" fill="#000000" font-size="21" font-family="Arial" >0.002</text>
<text x="1238" y="1258" fill="#000000" font-size="21" font-family="Arial" >0.005</text>
<text x="1290" y="1372" fill="#000000" font-size="21" font-family="Arial" >0.002</text>
<text x="1554" y="346" fill="#000000" font-size="21" font-family="Arial" >0.002</text>
<text x="1406" y="688" fill="#000000" font-size="21" font-family="Arial" >0.001</text>
<text x="1532" y="460" fill="#6D6D6D" font-size="21" font-family="Arial" >0.000</text>
<text x="1472" y="916" fill="#6D6D6D" font-size="21" font-family="Arial" >0.000</text>
<text x="1472" y="1144" fill="#6D6D6D" font-size="21" font-family="Arial" >0.000</text>
<text x="1423" y="1486" fill="#000000" font-size="21" font-family="Arial" >0.010</text>
<text x="18" y="2170" fill="#6D6D6D" font-size="21" font-family="Arial" >0.000</text>
<text x="1501" y="403" fill="#000000" font-size="21" font-family="Arial" >0.003</text>
<text x="1441" y="859" fill="#000000" font-size="21" font-family="Arial" >0.001</text>
<text x="1441" y="1087" fill="#000000" font-size="21" font-family="Arial" >0.001</text>
<text x="1412" y="973" fill="#000000" font-size="21" font-family="Arial" >0.002</text>
<text x="1311" y="830" fill="#000000" font-size="21" font-family="Arial" >0.008</text>
<text x="1517" y="175" fill="#000000" font-size="21" font-family="Arial" >0.004</text>
<text x="1407" y="289" fill="#000000" font-size="21" font-family="Arial" >0.006</text>
<text x="1158" y="1885" fill="#000000" font-size="21" font-family="Arial" >0.005</text>
<text x="481" y="1801" fill="#000000" font-size="21" font-family="Arial" >0.042</text>
<text x="1025" y="1546" fill="#000000" font-size="21" font-family="Arial" >0.007</text>
<text x="1282" y="431" fill="#000000" font-size="21" font-family="Arial" >0.005</text>
<text x="1192" y="630" fill="#000000" font-size="21" font-family="Arial" >0.002</text>
<text x="1148" y="944" fill="#000000" font-size="21" font-family="Arial" >0.001</text>
<text x="1474" y="1657" fill="#000000" font-size="21" font-family="Arial" >0.015</text>
<text x="1281" y="1571" fill="#000000" font-size="21" font-family="Arial" >0.002</text>
<text x="1209" y="1471" fill="#000000" font-size="21" font-family="Arial" >0.005</text>
<text x="1119" y="1207" fill="#000000" font-size="21" font-family="Arial" >0.002</text>
<line x1="60" y1="2187" x2="283" y2="2187" stroke="#000000" stroke-width="1" stroke-linecap="square"/>
<line x1="60" y1="2183" x2="60" y2="2191" stroke="#000000" stroke-width="1" stroke-linecap="square"/>
<line x1="283" y1="2183" x2="283" y2="2191" stroke="#000000" stroke-width="1" stroke-linecap="square"/>
<text x="155" y="2227" fill="#000000" font-size="21" font-family="Arial" >0.01</text>
</svg>
