<svg xmlns="http://www.w3.org/2000/svg" xmlns:xlink="http://www.w3.org/1999/xlink" version="1.1" width="2176" height="1344" name="session.svg" y="0" viewBox="0 0 2176 1344">
<polyline points="2176,1344 0,1344 0,0 2176,0 2176,1344" fill="white" />
<text x="1473" y="73" fill="#000000" font-size="27" font-family="Arial" > Cellulomonas gilvus 16s:2110398-2111913</text>
<polyline points="1352,92 1352,62 1465,62" fill="none" stroke="#000000" stroke-width="1" stroke-linecap="square"/>
<text x="1614" y="133" fill="#000000" font-size="27" font-family="Arial" > Cellulomonas fulva 16s:221-1651</text>
<polyline points="1352,93 1352,122 1606,122" fill="none" stroke="#000000" stroke-width="1" stroke-linecap="square"/>
<polyline points="1183,152 1183,92 1352,92" fill="none" stroke="#000000" stroke-width="1" stroke-linecap="square"/>
<text x="1389" y="193" fill="#000000" font-size="27" font-family="Arial" > Cellulomonas palmilytica 16s:1722785-1724301</text>
<polyline points="1296,212 1296,182 1381,182" fill="none" stroke="#000000" stroke-width="1" stroke-linecap="square"/>
<text x="1304" y="253" fill="#000000" font-size="27" font-family="Arial" > Cellulomonas uda 16s:3767-5283</text>
<polyline points="1296,213 1296,242 1296,242" fill="none" stroke="#000000" stroke-width="1" stroke-linecap="square"/>
<polyline points="1183,153 1183,212 1296,212" fill="none" stroke="#000000" stroke-width="1" stroke-linecap="square"/>
<polyline points="929,227 929,152 1183,152" fill="none" stroke="#000000" stroke-width="1" stroke-linecap="square"/>
<text x="1022" y="313" fill="#000000" font-size="27" font-family="Arial" > Cellulomonas composti 16s:3851-5368</text>
<polyline points="929,228 929,302 1014,302" fill="none" stroke="#000000" stroke-width="1" stroke-linecap="square"/>
<polyline points="703,332 703,227 929,227" fill="none" stroke="#000000" stroke-width="1" stroke-linecap="square"/>
<text x="1077" y="373" fill="#000000" font-size="27" font-family="Arial" > Cellulomonas wangsupingiae 16s:1190616-1192133</text>
<polyline points="1041,437 1041,362 1069,362" fill="none" stroke="#000000" stroke-width="1" stroke-linecap="square"/>
<text x="1303" y="433" fill="#000000" font-size="27" font-family="Arial" > Cellulomonas flavigena 16s:1209813-1211330</text>
<polyline points="1182,452 1182,422 1295,422" fill="none" stroke="#000000" stroke-width="1" stroke-linecap="square"/>
<text x="1190" y="493" fill="#000000" font-size="27" font-family="Arial" > Cellulomonas wangleii 16s:1227608-1229125</text>
<polyline points="1182,453 1182,482 1182,482" fill="none" stroke="#000000" stroke-width="1" stroke-linecap="square"/>
<polyline points="1126,512 1126,452 1182,452" fill="none" stroke="#000000" stroke-width="1" stroke-linecap="square"/>
<text x="1359" y="553" fill="#000000" font-size="27" font-family="Arial" > Cellulomonas iranesis 16s:690805-692322</text>
<polyline points="1182,572 1182,542 1351,542" fill="none" stroke="#000000" stroke-width="1" stroke-linecap="square"/>
<text x="1190" y="613" fill="#000000" font-size="27" font-family="Arial" > Cellulomonas xiejunii 16s:1204400-1205917</text>
<polyline points="1182,573 1182,602 1182,602" fill="none" stroke="#000000" stroke-width="1" stroke-linecap="square"/>
<polyline points="1126,513 1126,572 1182,572" fill="none" stroke="#000000" stroke-width="1" stroke-linecap="square"/>
<polyline points="1041,438 1041,512 1126,512" fill="none" stroke="#000000" stroke-width="1" stroke-linecap="square"/>
<polyline points="703,333 703,437 1041,437" fill="none" stroke="#000000" stroke-width="1" stroke-linecap="square"/>
<polyline points="618,497 618,332 703,332" fill="none" stroke="#000000" stroke-width="1" stroke-linecap="square"/>
<text x="852" y="673" fill="#000000" font-size="27" font-family="Arial" > Cellulomonas soli 16s:2903978-2905500</text>
<polyline points="618,498 618,662 844,662" fill="none" stroke="#000000" stroke-width="1" stroke-linecap="square"/>
<polyline points="562,635 562,497 618,497" fill="none" stroke="#000000" stroke-width="1" stroke-linecap="square"/>
<text x="881" y="733" fill="#000000" font-size="27" font-family="Arial" > Cellulomonas terrae 16s:3786-5305</text>
<polyline points="788,774 788,722 873,722" fill="none" stroke="#000000" stroke-width="1" stroke-linecap="square"/>
<text x="1304" y="793" fill="#000000" font-size="27" font-family="Arial" > Cellulomonas xylanilytica 16s:256-1776</text>
<polyline points="873,827 873,782 1296,782" fill="none" stroke="#000000" stroke-width="1" stroke-linecap="square"/>
<text x="1698" y="853" fill="#000000" font-size="27" font-family="Arial" > Cellulomonas hominis 16s:291-1810</text>
<polyline points="1493,872 1493,842 1690,842" fill="none" stroke="#000000" stroke-width="1" stroke-linecap="square"/>
<text x="1586" y="913" fill="#000000" font-size="27" font-family="Arial" > Cellulomonas pakistanensis 16s:3927-5446</text>
<polyline points="1493,873 1493,902 1578,902" fill="none" stroke="#000000" stroke-width="1" stroke-linecap="square"/>
<polyline points="873,828 873,872 1493,872" fill="none" stroke="#000000" stroke-width="1" stroke-linecap="square"/>
<polyline points="788,775 788,827 873,827" fill="none" stroke="#000000" stroke-width="1" stroke-linecap="square"/>
<polyline points="562,636 562,774 788,774" fill="none" stroke="#000000" stroke-width="1" stroke-linecap="square"/>
<polyline points="477,813 477,635 562,635" fill="none" stroke="#000000" stroke-width="1" stroke-linecap="square"/>
<text x="1105" y="973" fill="#000000" font-size="27" font-family="Arial" > Cellulomonas algicola 16s:3772-5290</text>
<polyline points="674,992 674,962 1097,962" fill="none" stroke="#000000" stroke-width="1" stroke-linecap="square"/>
<text x="823" y="1033" fill="#000000" font-size="27" font-family="Arial" > Cellulomonas fimi 16s:1832181-1833701</text>
<polyline points="674,993 674,1022 815,1022" fill="none" stroke="#000000" stroke-width="1" stroke-linecap="square"/>
<polyline points="477,814 477,992 674,992" fill="none" stroke="#000000" stroke-width="1" stroke-linecap="square"/>
<polyline points="167,947 167,813 477,813" fill="none" stroke="#000000" stroke-width="1" stroke-linecap="square"/>
<text x="429" y="1093" fill="#000000" font-size="27" font-family="Arial" > Cellulomonas cellasea 16s:297-1818</text>
<polyline points="167,948 167,1082 421,1082" fill="none" stroke="#000000" stroke-width="1" stroke-linecap="square"/>
<polyline points="40,1044 40,947 167,947" fill="none" stroke="#000000" stroke-width="1" stroke-linecap="square"/>
<text x="1698" y="1153" fill="#000000" font-size="27" font-family="Arial" > Sanguibacter suarezii 16s:276-1798</text>
<polyline points="40,1045 40,1142 1690,1142" fill="none" stroke="#000000" stroke-width="1" stroke-linecap="square"/>
<text x="1271" y="211" fill="#000000" font-size="21" font-family="Arial" >99</text>
<text x="1157" y="451" fill="#000000" font-size="21" font-family="Arial" >95</text>
<text x="1157" y="571" fill="#000000" font-size="21" font-family="Arial" >94</text>
<text x="1101" y="511" fill="#000000" font-size="21" font-family="Arial" >92</text>
<text x="1004" y="436" fill="#000000" font-size="21" font-family="Arial" >100</text>
<text x="1327" y="91" fill="#000000" font-size="21" font-family="Arial" >97</text>
<text x="1146" y="151" fill="#000000" font-size="21" font-family="Arial" >100</text>
<text x="649" y="991" fill="#000000" font-size="21" font-family="Arial" >97</text>
<text x="452" y="812" fill="#000000" font-size="21" font-family="Arial" >96</text>
<text x="904" y="226" fill="#000000" font-size="21" font-family="Arial" >98</text>
<text x="678" y="331" fill="#000000" font-size="21" font-family="Arial" >94</text>
<text x="593" y="496" fill="#000000" font-size="21" font-family="Arial" >83</text>
<text x="1456" y="871" fill="#000000" font-size="21" font-family="Arial" >100</text>
<text x="848" y="826" fill="#000000" font-size="21" font-family="Arial" >79</text>
<text x="763" y="773" fill="#000000" font-size="21" font-family="Arial" >84</text>
<text x="537" y="634" fill="#000000" font-size="21" font-family="Arial" >90</text>
<text x="864" y="991" fill="#000000" font-size="21" font-family="Arial" >0.010</text>
<text x="272" y="1111" fill="#000000" font-size="21" font-family="Arial" >0.006</text>
<text x="950" y="331" fill="#000000" font-size="21" font-family="Arial" >0.002</text>
<text x="723" y="1051" fill="#000000" font-size="21" font-family="Arial" >0.003</text>
<text x="1387" y="91" fill="#000000" font-size="21" font-family="Arial" >0.003</text>
<text x="1217" y="451" fill="#000000" font-size="21" font-family="Arial" >0.003</text>
<text x="1457" y="151" fill="#000000" font-size="21" font-family="Arial" >0.006</text>
<text x="1570" y="871" fill="#000000" font-size="21" font-family="Arial" >0.005</text>
<text x="1245" y="571" fill="#000000" font-size="21" font-family="Arial" >0.004</text>
<text x="1514" y="931" fill="#000000" font-size="21" font-family="Arial" >0.002</text>
<text x="709" y="691" fill="#000000" font-size="21" font-family="Arial" >0.005</text>
<text x="809" y="751" fill="#000000" font-size="21" font-family="Arial" >0.002</text>
<text x="1317" y="211" fill="#000000" font-size="21" font-family="Arial" >0.002</text>
<text x="1033" y="391" fill="#000000" font-size="21" font-family="Arial" >0.001</text>
<text x="1274" y="271" fill="#6D6D6D" font-size="21" font-family="Arial" >0.000</text>
<text x="1160" y="511" fill="#6D6D6D" font-size="21" font-family="Arial" >0.000</text>
<text x="1160" y="631" fill="#6D6D6D" font-size="21" font-family="Arial" >0.000</text>
<text x="1063" y="811" fill="#000000" font-size="21" font-family="Arial" >0.010</text>
<text x="843" y="1171" fill="#000000" font-size="21" font-family="Arial" >0.039</text>
<text x="1218" y="241" fill="#000000" font-size="21" font-family="Arial" >0.003</text>
<text x="1129" y="481" fill="#000000" font-size="21" font-family="Arial" >0.001</text>
<text x="1129" y="601" fill="#000000" font-size="21" font-family="Arial" >0.001</text>
<text x="1062" y="541" fill="#000000" font-size="21" font-family="Arial" >0.002</text>
<text x="850" y="466" fill="#000000" font-size="21" font-family="Arial" >0.008</text>
<text x="1246" y="121" fill="#000000" font-size="21" font-family="Arial" >0.004</text>
<text x="1034" y="181" fill="#000000" font-size="21" font-family="Arial" >0.006</text>
<text x="554" y="1021" fill="#000000" font-size="21" font-family="Arial" >0.005</text>
<text x="82" y="976" fill="#000000" font-size="21" font-family="Arial" >0.003</text>
<text x="300" y="842" fill="#000000" font-size="21" font-family="Arial" >0.007</text>
<text x="794" y="256" fill="#000000" font-size="21" font-family="Arial" >0.005</text>
<text x="639" y="361" fill="#000000" font-size="21" font-family="Arial" >0.002</text>
<text x="565" y="526" fill="#000000" font-size="21" font-family="Arial" >0.001</text>
<text x="1161" y="901" fill="#000000" font-size="21" font-family="Arial" >0.015</text>
<text x="809" y="856" fill="#000000" font-size="21" font-family="Arial" >0.002</text>
<text x="653" y="803" fill="#000000" font-size="21" font-family="Arial" >0.005</text>
<text x="498" y="664" fill="#000000" font-size="21" font-family="Arial" >0.002</text>
<line x1="60" y1="1188" x2="487" y2="1188" stroke="#000000" stroke-width="1" stroke-linecap="square"/>
<line x1="60" y1="1184" x2="60" y2="1192" stroke="#000000" stroke-width="1" stroke-linecap="square"/>
<line x1="487" y1="1184" x2="487" y2="1192" stroke="#000000" stroke-width="1" stroke-linecap="square"/>
<text x="257" y="1228" fill="#000000" font-size="21" font-family="Arial" >0.01</text>
<text x="1473" y="73" fill="#000000" font-size="27" font-family="Arial" > Cellulomonas gilvus 16s:2110398-2111913</text>
<polyline points="1352,92 1352,62 1465,62" fill="none" stroke="#000000" stroke-width="1" stroke-linecap="square"/>
<text x="1614" y="133" fill="#000000" font-size="27" font-family="Arial" > Cellulomonas fulva 16s:221-1651</text>
<polyline points="1352,93 1352,122 1606,122" fill="none" stroke="#000000" stroke-width="1" stroke-linecap="square"/>
<polyline points="1183,152 1183,92 1352,92" fill="none" stroke="#000000" stroke-width="1" stroke-linecap="square"/>
<text x="1389" y="193" fill="#000000" font-size="27" font-family="Arial" > Cellulomonas palmilytica 16s:1722785-1724301</text>
<polyline points="1296,212 1296,182 1381,182" fill="none" stroke="#000000" stroke-width="1" stroke-linecap="square"/>
<text x="1304" y="253" fill="#000000" font-size="27" font-family="Arial" > Cellulomonas uda 16s:3767-5283</text>
<polyline points="1296,213 1296,242 1296,242" fill="none" stroke="#000000" stroke-width="1" stroke-linecap="square"/>
<polyline points="1183,153 1183,212 1296,212" fill="none" stroke="#000000" stroke-width="1" stroke-linecap="square"/>
<polyline points="929,227 929,152 1183,152" fill="none" stroke="#000000" stroke-width="1" stroke-linecap="square"/>
<text x="1022" y="313" fill="#000000" font-size="27" font-family="Arial" > Cellulomonas composti 16s:3851-5368</text>
<polyline points="929,228 929,302 1014,302" fill="none" stroke="#000000" stroke-width="1" stroke-linecap="square"/>
<polyline points="703,332 703,227 929,227" fill="none" stroke="#000000" stroke-width="1" stroke-linecap="square"/>
<text x="1077" y="373" fill="#000000" font-size="27" font-family="Arial" > Cellulomonas wangsupingiae 16s:1190616-1192133</text>
<polyline points="1041,437 1041,362 1069,362" fill="none" stroke="#000000" stroke-width="1" stroke-linecap="square"/>
<text x="1303" y="433" fill="#000000" font-size="27" font-family="Arial" > Cellulomonas flavigena 16s:1209813-1211330</text>
<polyline points="1182,452 1182,422 1295,422" fill="none" stroke="#000000" stroke-width="1" stroke-linecap="square"/>
<text x="1190" y="493" fill="#000000" font-size="27" font-family="Arial" > Cellulomonas wangleii 16s:1227608-1229125</text>
<polyline points="1182,453 1182,482 1182,482" fill="none" stroke="#000000" stroke-width="1" stroke-linecap="square"/>
<polyline points="1126,512 1126,452 1182,452" fill="none" stroke="#000000" stroke-width="1" stroke-linecap="square"/>
<text x="1359" y="553" fill="#000000" font-size="27" font-family="Arial" > Cellulomonas iranesis 16s:690805-692322</text>
<polyline points="1182,572 1182,542 1351,542" fill="none" stroke="#000000" stroke-width="1" stroke-linecap="square"/>
<text x="1190" y="613" fill="#000000" font-size="27" font-family="Arial" > Cellulomonas xiejunii 16s:1204400-1205917</text>
<polyline points="1182,573 1182,602 1182,602" fill="none" stroke="#000000" stroke-width="1" stroke-linecap="square"/>
<polyline points="1126,513 1126,572 1182,572" fill="none" stroke="#000000" stroke-width="1" stroke-linecap="square"/>
<polyline points="1041,438 1041,512 1126,512" fill="none" stroke="#000000" stroke-width="1" stroke-linecap="square"/>
<polyline points="703,333 703,437 1041,437" fill="none" stroke="#000000" stroke-width="1" stroke-linecap="square"/>
<polyline points="618,497 618,332 703,332" fill="none" stroke="#000000" stroke-width="1" stroke-linecap="square"/>
<text x="852" y="673" fill="#000000" font-size="27" font-family="Arial" > Cellulomonas soli 16s:2903978-2905500</text>
<polyline points="618,498 618,662 844,662" fill="none" stroke="#000000" stroke-width="1" stroke-linecap="square"/>
<polyline points="562,635 562,497 618,497" fill="none" stroke="#000000" stroke-width="1" stroke-linecap="square"/>
<text x="881" y="733" fill="#000000" font-size="27" font-family="Arial" > Cellulomonas terrae 16s:3786-5305</text>
<polyline points="788,774 788,722 873,722" fill="none" stroke="#000000" stroke-width="1" stroke-linecap="square"/>
<text x="1304" y="793" fill="#000000" font-size="27" font-family="Arial" > Cellulomonas xylanilytica 16s:256-1776</text>
<polyline points="873,827 873,782 1296,782" fill="none" stroke="#000000" stroke-width="1" stroke-linecap="square"/>
<text x="1698" y="853" fill="#000000" font-size="27" font-family="Arial" > Cellulomonas hominis 16s:291-1810</text>
<polyline points="1493,872 1493,842 1690,842" fill="none" stroke="#000000" stroke-width="1" stroke-linecap="square"/>
<text x="1586" y="913" fill="#000000" font-size="27" font-family="Arial" > Cellulomonas pakistanensis 16s:3927-5446</text>
<polyline points="1493,873 1493,902 1578,902" fill="none" stroke="#000000" stroke-width="1" stroke-linecap="square"/>
<polyline points="873,828 873,872 1493,872" fill="none" stroke="#000000" stroke-width="1" stroke-linecap="square"/>
<polyline points="788,775 788,827 873,827" fill="none" stroke="#000000" stroke-width="1" stroke-linecap="square"/>
<polyline points="562,636 562,774 788,774" fill="none" stroke="#000000" stroke-width="1" stroke-linecap="square"/>
<polyline points="477,813 477,635 562,635" fill="none" stroke="#000000" stroke-width="1" stroke-linecap="square"/>
<text x="1105" y="973" fill="#000000" font-size="27" font-family="Arial" > Cellulomonas algicola 16s:3772-5290</text>
<polyline points="674,992 674,962 1097,962" fill="none" stroke="#000000" stroke-width="1" stroke-linecap="square"/>
<text x="823" y="1033" fill="#000000" font-size="27" font-family="Arial" > Cellulomonas fimi 16s:1832181-1833701</text>
<polyline points="674,993 674,1022 815,1022" fill="none" stroke="#000000" stroke-width="1" stroke-linecap="square"/>
<polyline points="477,814 477,992 674,992" fill="none" stroke="#000000" stroke-width="1" stroke-linecap="square"/>
<polyline points="167,947 167,813 477,813" fill="none" stroke="#000000" stroke-width="1" stroke-linecap="square"/>
<text x="429" y="1093" fill="#000000" font-size="27" font-family="Arial" > Cellulomonas cellasea 16s:297-1818</text>
<polyline points="167,948 167,1082 421,1082" fill="none" stroke="#000000" stroke-width="1" stroke-linecap="square"/>
<polyline points="40,1044 40,947 167,947" fill="none" stroke="#000000" stroke-width="1" stroke-linecap="square"/>
<text x="1698" y="1153" fill="#000000" font-size="27" font-family="Arial" > Sanguibacter suarezii 16s:276-1798</text>
<polyline points="40,1045 40,1142 1690,1142" fill="none" stroke="#000000" stroke-width="1" stroke-linecap="square"/>
<text x="1271" y="211" fill="#000000" font-size="21" font-family="Arial" >99</text>
<text x="1157" y="451" fill="#000000" font-size="21" font-family="Arial" >95</text>
<text x="1157" y="571" fill="#000000" font-size="21" font-family="Arial" >94</text>
<text x="1101" y="511" fill="#000000" font-size="21" font-family="Arial" >92</text>
<text x="1004" y="436" fill="#000000" font-size="21" font-family="Arial" >100</text>
<text x="1327" y="91" fill="#000000" font-size="21" font-family="Arial" >97</text>
<text x="1146" y="151" fill="#000000" font-size="21" font-family="Arial" >100</text>
<text x="649" y="991" fill="#000000" font-size="21" font-family="Arial" >97</text>
<text x="452" y="812" fill="#000000" font-size="21" font-family="Arial" >96</text>
<text x="904" y="226" fill="#000000" font-size="21" font-family="Arial" >98</text>
<text x="678" y="331" fill="#000000" font-size="21" font-family="Arial" >94</text>
<text x="593" y="496" fill="#000000" font-size="21" font-family="Arial" >83</text>
<text x="1456" y="871" fill="#000000" font-size="21" font-family="Arial" >100</text>
<text x="848" y="826" fill="#000000" font-size="21" font-family="Arial" >79</text>
<text x="763" y="773" fill="#000000" font-size="21" font-family="Arial" >84</text>
<text x="537" y="634" fill="#000000" font-size="21" font-family="Arial" >90</text>
<text x="864" y="991" fill="#000000" font-size="21" font-family="Arial" >0.010</text>
<text x="272" y="1111" fill="#000000" font-size="21" font-family="Arial" >0.006</text>
<text x="950" y="331" fill="#000000" font-size="21" font-family="Arial" >0.002</text>
<text x="723" y="1051" fill="#000000" font-size="21" font-family="Arial" >0.003</text>
<text x="1387" y="91" fill="#000000" font-size="21" font-family="Arial" >0.003</text>
<text x="1217" y="451" fill="#000000" font-size="21" font-family="Arial" >0.003</text>
<text x="1457" y="151" fill="#000000" font-size="21" font-family="Arial" >0.006</text>
<text x="1570" y="871" fill="#000000" font-size="21" font-family="Arial" >0.005</text>
<text x="1245" y="571" fill="#000000" font-size="21" font-family="Arial" >0.004</text>
<text x="1514" y="931" fill="#000000" font-size="21" font-family="Arial" >0.002</text>
<text x="709" y="691" fill="#000000" font-size="21" font-family="Arial" >0.005</text>
<text x="809" y="751" fill="#000000" font-size="21" font-family="Arial" >0.002</text>
<text x="1317" y="211" fill="#000000" font-size="21" font-family="Arial" >0.002</text>
<text x="1033" y="391" fill="#000000" font-size="21" font-family="Arial" >0.001</text>
<text x="1274" y="271" fill="#6D6D6D" font-size="21" font-family="Arial" >0.000</text>
<text x="1160" y="511" fill="#6D6D6D" font-size="21" font-family="Arial" >0.000</text>
<text x="1160" y="631" fill="#6D6D6D" font-size="21" font-family="Arial" >0.000</text>
<text x="1063" y="811" fill="#000000" font-size="21" font-family="Arial" >0.010</text>
<text x="843" y="1171" fill="#000000" font-size="21" font-family="Arial" >0.039</text>
<text x="1218" y="241" fill="#000000" font-size="21" font-family="Arial" >0.003</text>
<text x="1129" y="481" fill="#000000" font-size="21" font-family="Arial" >0.001</text>
<text x="1129" y="601" fill="#000000" font-size="21" font-family="Arial" >0.001</text>
<text x="1062" y="541" fill="#000000" font-size="21" font-family="Arial" >0.002</text>
<text x="850" y="466" fill="#000000" font-size="21" font-family="Arial" >0.008</text>
<text x="1246" y="121" fill="#000000" font-size="21" font-family="Arial" >0.004</text>
<text x="1034" y="181" fill="#000000" font-size="21" font-family="Arial" >0.006</text>
<text x="554" y="1021" fill="#000000" font-size="21" font-family="Arial" >0.005</text>
<text x="82" y="976" fill="#000000" font-size="21" font-family="Arial" >0.003</text>
<text x="300" y="842" fill="#000000" font-size="21" font-family="Arial" >0.007</text>
<text x="794" y="256" fill="#000000" font-size="21" font-family="Arial" >0.005</text>
<text x="639" y="361" fill="#000000" font-size="21" font-family="Arial" >0.002</text>
<text x="565" y="526" fill="#000000" font-size="21" font-family="Arial" >0.001</text>
<text x="1161" y="901" fill="#000000" font-size="21" font-family="Arial" >0.015</text>
<text x="809" y="856" fill="#000000" font-size="21" font-family="Arial" >0.002</text>
<text x="653" y="803" fill="#000000" font-size="21" font-family="Arial" >0.005</text>
<text x="498" y="664" fill="#000000" font-size="21" font-family="Arial" >0.002</text>
<line x1="60" y1="1188" x2="487" y2="1188" stroke="#000000" stroke-width="1" stroke-linecap="square"/>
<line x1="60" y1="1184" x2="60" y2="1192" stroke="#000000" stroke-width="1" stroke-linecap="square"/>
<line x1="487" y1="1184" x2="487" y2="1192" stroke="#000000" stroke-width="1" stroke-linecap="square"/>
<text x="257" y="1228" fill="#000000" font-size="21" font-family="Arial" >0.01</text>
</svg>
